<?xml version="1.0" encoding="UTF-8"?>
<svg id="Camada_1" data-name="Camada 1" xmlns="http://www.w3.org/2000/svg" xmlns:xlink="http://www.w3.org/1999/xlink" viewBox="0 0 143.66 156.08">
  <defs>
    <style>
      .cls-1 {
        fill: #f5f4f4;
      }

      .cls-2 {
        fill: url(#Gradiente_sem_nome_10);
      }
    </style>
    <linearGradient id="Gradiente_sem_nome_10" data-name="Gradiente sem nome 10" x1="-3.71" y1="176.38" x2="126.46" y2="115.59" gradientUnits="userSpaceOnUse">
      <stop offset="0" stop-color="#bf00ad"/>
      <stop offset="1" stop-color="#3e106f"/>
    </linearGradient>
  </defs>
  <path class="cls-1" d="M140.17,87.3c-.97-4.97-4.56-13.77-8.83-17.04-1.09-2.14-2.95-3.38-4.82-4.82-6.9-5.31-14.98-7.5-24.04-9.07,10.8-2.86,19.87-10.15,22.15-21.07,1.77-8.46-.07-17.16-5.48-23.56C111.04,2.15,97.95-.02,85.98.03l-44.34.18c2.69,2.7,3.8,5.08,3.8,8.45v31.62l.08,60.81c3.1.61,6.05-.43,9.36.63.43-1.85.29-3.78.29-6.07l-.03-36.21,32.87-.04c4.49,0,8.65.33,12.96,1.41,6.88,1.17,13.1,4.03,18.31,8.84,11.67,10.79,13.7,29.03,7.6,43.42-4.24,10.01-12.82,16.99-23.45,19.1-4.22.84-8.38,1.14-12.57,1.05-2.05-.04-4.12-.17-6.21-.38-3.26-.33-6.47-.69-9.66-1.09v-.05c-15.51-2.03-18.38-2.91-18.38-2.91-.43-.06-.86-.13-1.27-.19-20.29-3.02-20.8-3.08-22.66-3.19-11.97-.7-19.4-1.02-24.45,3.9-4.04,3.94-4.82,9.56-4.94,13,1.59-1.42,4.1-3.39,7.54-4.94,8.24-3.73,16.13-2.54,19.24-2.08,0,0,10.5,1.55,25.25,3.27,4.28.5,11.45,1.12,16.78,1.64v.06c.55.04,1.1.07,1.62.1.12,0,.22,0,.29,0,5.68.29,11.26.51,16.81.25,4.35-.2,8.66-.7,12.97-1.68,12.66-2.89,25.1-9.69,31.67-21.2,5.2-9.12,6.69-20.2,4.68-30.45v.02h.03ZM90.07,54.65l-32.38.34c-1.47,0-2.72-1.07-2.72-2.7V6.79c0-.65.45-2.28,1.07-2.28l33.41.14c7.49.03,17.14,3.98,21.56,10.85,5.28,8.2,5.82,19.86-.16,28.4-4.82,6.87-12.73,10.67-20.78,10.75h0Z"/>
  <path class="cls-1" d="M23.26,68.18l-.03,33.46c0,2.91.75,14.17-2.04,15.08,11.28-2.01,23.6-1.65,34.67-.07,1.45.21,2.68.36,4.21.46,15.39.96,44.56,6.08,53.23-9.33,2.68-4.77,3.52-10.48,2.16-16.2-4.31,10.48-6.72,13.1-16.86,16.43-5.59,1.83-11.21,2.2-17.2,2.21l-40.17.04c-2.94,0-5.67.16-8.36-.63V7.31c0-2.46-1.22-5.46-3.1-6.34-3.26-1.52-6.9-.91-10.22-.43,2.46,2.5,3.72,4.74,3.72,7.89v59.76h0Z"/>
  <path class="cls-2" d="M.28,156.06c-1.31-4.54,2.25-9.29,5.8-11.79,6.85-4.85,16.55-5.32,24.74-4.73,6.12.44,11.92,1.31,17.99,2.33,10.05,1.69,19.89,3.27,30.07,4.02,9.5.69,18.69.24,27.91-2,17.12-4.18,32.27-15.68,36.81-33.25.66,10.27-3.78,19.9-10.85,27.02-5.82,5.87-13.17,9.75-21.15,11.95-9.66,2.66-22.15,2.75-32.05,1.5l-19.89-2.5c-14.16-1.78-28.03-3.36-42.12-.77-4.3.79-8.3,1.9-12.08,3.97-1.97,1.11-3.65,2.31-5.17,4.27H.29v-.02Z"/>
</svg>